PathFileType	4	(X/Y/Z)	C:\Users\Basilio\Documents\Thesis Gigler\squatting_fais\c3dfiles\077\SJ_pre3\markers_experimental.trc
DataRate	CameraRate	NumFrames	NumMarkers	Units	OrigDataRate	OrigDataStartFrame	OrigNumFrames
200.000000	200.000000	4	60	mm	200.000000	711	1422
Frame#	Time	FHD			LBHD			RBHD			C7			T10			CLAV			LSHO			LUUPA			LMUPA			LDUPA			LLEP			LMEP			LRAD			LUL			LRFIN			RSHO			RUPA1			RMUPA			RDUPA			RLEP			RMEP			RRAD			RUL			RUFIN			LASI			RASI			USACR			LSACR			RSACR			LTHI1			LTHI2			LTHI3			LTHI4			LLFC			LMFC			LTIB1			LTIB2			LTIB3			LTIB4			LLMAL			LHEE			LMT1			LMT2			LMT5			RTHI			RTHI2			RTHI3			RTHI4			RLFC			RMFC			RTIB1			RTIB2			RTIB3			RTIB4			RLMAL			RMMAL			RHEE			RMT1			RMT2			RMT5			
		X1	Y1	Z1	X2	Y2	Z2	X3	Y3	Z3	X4	Y4	Z4	X5	Y5	Z5	X6	Y6	Z6	X7	Y7	Z7	X8	Y8	Z8	X9	Y9	Z9	X10	Y10	Z10	X11	Y11	Z11	X12	Y12	Z12	X13	Y13	Z13	X14	Y14	Z14	X15	Y15	Z15	X16	Y16	Z16	X17	Y17	Z17	X18	Y18	Z18	X19	Y19	Z19	X20	Y20	Z20	X21	Y21	Z21	X22	Y22	Z22	X23	Y23	Z23	X24	Y24	Z24	X25	Y25	Z25	X26	Y26	Z26	X27	Y27	Z27	X28	Y28	Z28	X29	Y29	Z29	X30	Y30	Z30	X31	Y31	Z31	X32	Y32	Z32	X33	Y33	Z33	X34	Y34	Z34	X35	Y35	Z35	X36	Y36	Z36	X37	Y37	Z37	X38	Y38	Z38	X39	Y39	Z39	X40	Y40	Z40	X41	Y41	Z41	X42	Y42	Z42	X43	Y43	Z43	X44	Y44	Z44	X45	Y45	Z45	X46	Y46	Z46	X47	Y47	Z47	X48	Y48	Z48	X49	Y49	Z49	X50	Y50	Z50	X51	Y51	Z51	X52	Y52	Z52	X53	Y53	Z53	X54	Y54	Z54	X55	Y55	Z55	X56	Y56	Z56	X57	Y57	Z57	X58	Y58	Z58	X59	Y59	Z59	X60	Y60	Z60	

712	3.555	43.73589706420899	1189.93994140625	-902.8588867187502	-100.2072906494141	1084.265258789063	-968.5312500000002	-106.7949142456055	1086.295166015625	-824.2554931640627	-163.9225311279297	1033.275512695313	-895.7952880859377	-407.259735107422	836.886657714844	-908.670349121094	-53.92990493774415	878.6694335937502	-889.9414062500002	-35.98353958129884	942.198425292969	-1061.73388671875	-108.9629669189453	872.3702392578127	-1258.134887695313	-119.1577835083008	824.935485839844	-1260.304931640625	-140.4934539794922	844.9719238281252	-1313.015502929688	-185.9996490478516	799.7673339843752	-1350.642211914063	-245.9592895507813	863.208435058594	-1349.324584960938	-423.9424438476564	746.5544433593751	-1140.823120117188	-410.1103820800782	675.2519531250001	-1179.084716796875	nan	nan	nan	-21.12563514709473	917.7337036132815	-721.0161743164064	-131.5137786865235	839.050964355469	-526.3916625976564	-155.6170349121094	797.0089111328127	-539.5446777343751	-180.66748046875	809.651306152344	-485.9193115234376	-239.4434661865235	770.270935058594	-464.7533569335939	-293.3841552734376	842.5717773437502	-462.0644836425782	-469.3899536132814	731.2976074218751	-666.7348632812501	-443.4203186035157	657.6166992187501	-650.3775024414064	nan	nan	nan	nan	nan	nan	nan	nan	nan	-510.4194641113282	772.266296386719	-914.7650146484377	-533.7645874023439	761.7998046875001	-945.3321533203127	-545.4385986328126	759.1687011718751	-891.9064941406252	-421.5437622070314	576.4046020507814	-1168.052001953125	-343.2643432617188	578.5999755859376	-1197.817260742188	-318.7578735351563	617.8855590820314	-1179.638549804688	-310.6504211425782	532.9124755859376	-1217.980834960938	-169.2321319580078	490.6675720214845	-1253.4736328125	-120.4858016967774	447.6021118164064	-1135.72216796875	-195.3107452392579	275.4027099609376	-1201.93212890625	-266.4095153808594	262.5828857421876	-1258.391967773438	-232.803695678711	242.5584259033204	-1234.972900390625	-270.1441955566407	172.806381225586	-1199.835571289063	-384.812957763672	102.2165603637696	-1226.15625	-438.5527648925782	48.37998580932619	-1170.711181640625	-224.3537292480469	57.76924514770509	-1208.543212890625	-234.4665832519532	59.50838088989259	-1249.81005859375	-335.5245666503907	95.77961730957033	-1152.96240234375	-349.8366394042969	535.1240234375001	-606.8434448242189	-284.2737731933594	557.4161376953126	-587.5314331054689	-269.0903015136719	585.8094482421876	-600.3341064453126	-225.2750091552735	500.9909973144532	-570.4400024414064	-187.5310974121094	467.6063232421876	-555.3264770507814	-126.7922058105469	446.3267211914064	-668.1236572265626	-184.0406494140625	333.5684509277344	-563.6164550781251	-285.1356506347657	294.7482604980469	-557.1339111328126	-245.0290222167969	271.1239318847657	-567.3078613281251	-247.1628112792969	226.8123474121094	-605.4921264648439	-394.4976501464845	97.11162567138675	-598.9512329101564	-342.5036926269532	88.08080291748048	-673.7442016601564	-446.3757629394532	47.19784927368165	-665.7169189453126	-237.4509277343751	59.69027709960939	-576.3254394531251	-254.0829010009766	61.63673400878908	-542.0692749023439	-285.8947143554688	42.50103759765626	-501.6208801269532	
713	3.56	43.96760559082032	1190.011474609375	-902.7368774414065	-99.95864105224612	1084.30126953125	-968.3948974609377	-106.6023941040039	1086.353637695313	-824.1217041015627	-163.7420654296875	1033.349609375	-895.6828613281252	-407.0531005859376	837.228210449219	-908.6542968750002	-53.81073379516603	878.694274902344	-889.9648437500002	-35.83175659179688	942.2275390625002	-1061.726196289063	-108.9340057373047	872.5684814453127	-1258.23779296875	-118.896354675293	824.4484863281252	-1260.157836914063	-140.2668762207032	845.0098266601565	-1312.956420898438	-185.8193664550782	799.7984619140627	-1350.531005859375	-245.8456115722657	863.2427368164065	-1349.3271484375	-423.8105773925782	746.7386474609376	-1140.786499023438	-409.7563476562501	675.2835083007814	-1178.9990234375	nan	nan	nan	-20.95282745361328	917.6708984375002	-720.9912109375001	-131.3592376708985	839.0750732421877	-526.3203125000001	-155.4957885742188	797.0147705078127	-539.5370483398439	-180.5472564697266	809.7233886718752	-485.8819580078126	-239.3128814697266	770.3742675781252	-464.7283630371095	-293.2261657714844	842.6624755859377	-462.0038146972657	-469.2055664062501	731.6199951171876	-666.7133789062501	-443.3673095703126	657.7879638671876	-650.3225708007814	nan	nan	nan	nan	nan	nan	nan	nan	nan	-510.4646301269532	772.4465942382815	-914.6945800781252	-533.6839599609376	762.2250976562501	-945.280212402344	-545.4456176757814	759.4866333007814	-891.9034423828127	-421.5447387695314	576.6665039062501	-1168.001831054688	-343.0936279296876	579.1296386718751	-1197.477416992188	-318.7075500488282	618.1340942382814	-1179.529663085938	-310.5270385742188	532.9415283203126	-1217.84423828125	-169.1856079101563	490.6615295410157	-1253.258911132813	-120.5285568237305	447.6252441406251	-1135.48876953125	-195.3950653076172	275.3204650878907	-1201.716064453125	-266.3172302246094	262.5463867187501	-1258.284790039063	-232.8281555175782	243.3174591064454	-1234.721069335938	-270.1214294433594	172.6937255859375	-1199.778198242188	-384.6854248046876	102.2327194213867	-1226.189697265625	-438.4856262207032	48.36864852905275	-1170.756958007813	-224.4265899658204	57.73176193237306	-1208.512817382813	-234.4167785644532	59.46410751342775	-1249.78466796875	-335.6041870117188	95.77487945556642	-1153.006713867188	-349.7285766601563	535.2844238281251	-606.9350585937501	-284.0926513671876	557.5419921875001	-587.6541137695314	-268.9785766601563	585.8577880859376	-600.5128784179689	-225.1950683593751	500.9811401367189	-570.6096801757814	-187.4884490966797	467.5819091796876	-555.5018310546876	-126.7825012207032	446.2361145019532	-668.3778686523439	-183.98974609375	333.5082702636719	-563.8161010742189	-285.0467529296876	294.7569580078126	-557.2207031250001	-245.0947570800782	270.9862060546876	-567.4547119140626	-247.2083740234376	226.7498779296876	-605.6342773437501	-394.4647216796876	97.13266754150393	-598.9653320312501	-342.4433288574219	87.99877166748048	-673.7561035156251	-446.3770141601564	47.08384704589844	-665.7267456054689	-237.4774932861329	59.62012481689455	-576.3247680664064	-254.0847473144532	61.62828826904298	-542.1012573242189	-285.8993225097657	42.52333450317384	-501.5900878906251	
714	3.565	44.19670486450196	1190.188598632813	-902.6777343750002	-99.68286132812503	1084.246826171875	-968.332214355469	-106.3039779663086	1086.387573242188	-824.0026855468752	-163.52197265625	1033.349853515625	-895.5847778320315	-406.8855895996095	837.522644042969	-908.6470947265627	-53.594295501709	878.7886352539065	-889.8704223632815	-35.63421630859376	942.257019042969	-1061.7373046875	-108.6304244995117	872.436218261719	-1258.089111328125	-118.6956634521485	824.4810791015627	-1260.044921875	-140.1131439208985	845.0552978515627	-1312.874389648438	-185.5397491455078	799.7672119140627	-1350.496215820313	-245.4797058105469	863.3983154296877	-1349.296752929688	-423.5363769531251	746.7968750000001	-1140.787353515625	-409.6214904785157	675.4839477539064	-1178.93310546875	nan	nan	nan	-20.76879692077637	917.6510009765627	-720.9699096679689	-131.1544036865235	839.180358886719	-526.3054199218751	-155.330078125	797.0344848632815	-539.4559936523439	-180.3730621337891	809.784362792969	-485.7993774414064	-239.2007904052735	770.457702636719	-464.734344482422	-293.0780334472657	842.7658691406252	-461.9637756347657	-469.170867919922	731.9197998046876	-666.6173095703126	-443.2687377929689	658.0359497070314	-650.3504638671876	nan	nan	nan	nan	nan	nan	nan	nan	nan	-510.4261169433595	772.8175048828127	-914.645202636719	-533.5686035156251	762.6437377929689	-945.3349609375002	-545.3523559570314	759.8229370117189	-891.8647460937502	-421.2933044433595	576.7316894531251	-1167.835571289063	-342.9182434082032	579.3147583007814	-1197.380737304688	-318.6174011230469	618.2865600585939	-1179.398071289063	-310.4635009765626	533.0294799804689	-1217.709106445313	-169.2422332763672	490.7518920898439	-1252.924438476563	-120.6188659667969	447.6907653808595	-1135.264892578125	-195.4225311279297	275.3763732910157	-1201.552612304688	-266.3309020996094	262.5964050292969	-1258.189575195313	-232.7885131835938	243.3632049560547	-1234.63525390625	-270.1643676757813	172.7379760742188	-1199.681884765625	-384.673065185547	102.1887741088867	-1226.1748046875	-438.5770263671876	48.38634109497072	-1170.749389648438	-224.3980712890626	57.66244506835939	-1208.5087890625	-234.4470977783204	59.41811752319337	-1249.775146484375	-335.6534423828126	95.73995208740236	-1152.935913085938	-349.6416015625001	535.4096679687501	-607.0076904296876	-284.0001831054688	557.6672973632814	-587.8208007812501	-268.8842773437501	585.9447021484376	-600.6566772460939	-225.0992889404297	501.116912841797	-570.7828369140626	-187.3939666748047	467.5388793945314	-555.6672363281251	-126.7863235473633	446.1455993652345	-668.6182861328126	-183.9424591064453	333.5108947753907	-563.9398803710939	-285.0107116699219	294.7994079589844	-557.3164672851564	-245.049301147461	271.0158996582032	-567.4802246093751	-247.172103881836	226.7390136718751	-605.7421264648439	-394.475555419922	97.13913726806643	-598.9715576171876	-342.5765991210938	87.99380493164064	-673.8203735351564	-446.4312438964845	47.06543350219727	-665.6956787109376	-237.4424896240235	59.68094635009767	-576.3593139648439	-254.0894927978516	61.63165664672853	-542.1162109375001	-285.9056091308594	42.5514144897461	-501.6354064941407	
715	3.57	44.4620590209961	1190.135986328125	-902.5743408203127	-99.3661804199219	1084.006713867188	-968.346130371094	-106.0810317993164	1086.324462890625	-823.8690185546877	-163.2273559570313	1033.450805664063	-895.5501708984377	-406.7261962890626	837.8167114257815	-908.6138305664065	-53.40568923950197	878.7861328125002	-889.7908325195315	-35.4124984741211	942.417907714844	-1061.666015625	-108.4704895019532	872.6135253906252	-1258.01904296875	-118.5381240844727	824.5167236328127	-1259.992065429688	-139.8830718994141	845.0618896484377	-1312.813598632813	-185.3683624267578	799.8717041015627	-1350.413940429688	-245.2985534667969	863.5598754882815	-1349.3193359375	-423.478240966797	747.1240234375001	-1140.75634765625	-409.4428100585939	675.7315673828126	-1178.880126953125	nan	nan	nan	-20.5527400970459	917.6655883789065	-720.9508666992189	-130.962158203125	839.2360839843752	-526.2108154296876	-155.1661987304688	797.1135864257815	-539.4320678710939	-180.2725372314453	809.799987792969	-485.7704162597657	-239.1359252929688	770.5130615234377	-464.7754211425782	-292.9177856445313	842.9042968750002	-461.9187011718751	-469.0447082519532	732.2921752929689	-666.5554809570314	-443.2058715820314	658.3311157226564	-650.3676147460939	nan	nan	nan	nan	nan	nan	nan	nan	nan	-510.1869506835939	773.233825683594	-914.6987915039065	-533.5806274414064	762.9169921875001	-945.2061767578127	-545.1578979492189	760.2744140625001	-891.8367309570315	-421.1937866210939	576.8709716796876	-1167.728759765625	-343.0640258789063	579.0635375976564	-1197.426025390625	-318.4871215820313	618.2764282226564	-1179.240844726563	-310.3531188964844	533.2042236328126	-1217.578369140625	-169.1527404785157	490.7830505371095	-1252.748779296875	-120.6087646484375	447.7033996582032	-1134.968383789063	-195.3750762939454	275.4043579101563	-1201.437133789063	-266.1656494140626	262.5804443359376	-1258.143920898438	-232.8695526123047	243.2637176513672	-1234.385009765625	-270.1270446777344	172.8195190429688	-1199.531616210938	-384.6373291015626	102.1740341186524	-1226.111938476563	-438.5139160156251	48.24169540405275	-1170.781982421875	-224.4048767089844	57.69651794433595	-1208.494140625	-234.5717468261719	59.48367309570314	-1249.82666015625	-335.6571350097657	95.71893310546876	-1152.9443359375	-349.5458374023438	535.6223754882814	-607.1499633789064	-283.8807678222657	557.7350463867189	-587.9725952148439	-268.7297363281251	586.0712890625001	-600.7850341796876	-225.0359649658204	501.150848388672	-571.0103149414064	-187.3464965820313	467.5010375976564	-555.9124145507814	-126.7837600708008	446.1102294921876	-668.8781127929689	-183.893539428711	333.5047302246094	-564.1106567382814	-284.9644775390626	294.8160095214844	-557.4038085937501	-245.0201110839844	270.9626464843751	-567.6347045898439	-247.1224212646485	226.7071380615235	-605.8545532226564	-394.4259643554689	97.18432617187503	-598.9543457031251	-342.3664855957032	87.9206008911133	-673.7832031250001	-446.4298400878907	47.01626586914063	-665.7042236328126	-237.4430236816407	59.69021224975587	-576.3480224609376	-254.066146850586	61.71326828002931	-542.0726318359376	-285.9025268554688	42.57109069824219	-501.6545410156251	
